<svg xmlns="http://www.w3.org/2000/svg" xmlns:xlink="http://www.w3.org/1999/xlink" contentStyleType="text/css" height="1461px" preserveAspectRatio="none" style="width:2383px;height:1461px;background:#FFFFFF;" version="1.1" viewBox="0 0 2383 1461" width="2383px" zoomAndPan="magnify"><defs/><g><rect fill="none" height="20.9531" style="stroke:none;stroke-width:1.0;" width="2350.7173" x="15" y="12.7451"/><ellipse cx="307.8354" cy="48.6982" fill="#222222" rx="10" ry="10" style="stroke:#222222;stroke-width:1.0;"/><rect fill="#F1F1F1" height="33.9688" rx="12.5" ry="12.5" style="stroke:#181818;stroke-width:0.5;" width="327.4063" x="144.1323" y="78.6982"/><text fill="#000000" font-family="sans-serif" font-size="12" lengthAdjust="spacing" textLength="307.4063" x="154.1323" y="99.8369">Identificar Problemas en los Tiempos de Respuesta</text><rect fill="#F1F1F1" height="33.9688" rx="12.5" ry="12.5" style="stroke:#181818;stroke-width:0.5;" width="183.7109" x="215.98" y="132.667"/><text fill="#000000" font-family="sans-serif" font-size="12" lengthAdjust="spacing" textLength="163.7109" x="225.98" y="153.8057">Definir Objetivos de Mejora</text><line style="stroke:#000000;stroke-width:1.5;" x1="15" x2="15" y1="12.7451" y2="1449.917"/><rect fill="#F1F1F1" height="33.9688" rx="12.5" ry="12.5" style="stroke:#181818;stroke-width:0.5;" width="293.1055" x="674.0039" y="186.6357"/><text fill="#000000" font-family="sans-serif" font-size="12" lengthAdjust="spacing" textLength="273.1055" x="684.0039" y="207.7744">Tiempo de Respuesta Promedio a Incidencias</text><rect fill="#F1F1F1" height="33.9688" rx="12.5" ry="12.5" style="stroke:#181818;stroke-width:0.5;" width="244.8008" x="698.1563" y="240.6045"/><text fill="#000000" font-family="sans-serif" font-size="12" lengthAdjust="spacing" textLength="224.8008" x="708.1563" y="261.7432">Meta: Reducir en un 20% en 6 meses</text><rect fill="#F1F1F1" height="33.9688" rx="12.5" ry="12.5" style="stroke:#181818;stroke-width:0.5;" width="256.0215" x="692.5459" y="294.5732"/><text fill="#000000" font-family="sans-serif" font-size="12" lengthAdjust="spacing" textLength="236.0215" x="702.5459" y="315.7119">Tasa de Resoluci&#243;n en Primer Contacto</text><rect fill="#F1F1F1" height="33.9688" rx="12.5" ry="12.5" style="stroke:#181818;stroke-width:0.5;" width="212.8496" x="714.1318" y="348.542"/><text fill="#000000" font-family="sans-serif" font-size="12" lengthAdjust="spacing" textLength="192.8496" x="724.1318" y="369.6807">Meta: Alcanzar 85% en 3 meses</text><rect fill="#F1F1F1" height="33.9688" rx="12.5" ry="12.5" style="stroke:#181818;stroke-width:0.5;" width="216.6406" x="712.2363" y="402.5107"/><text fill="#000000" font-family="sans-serif" font-size="12" lengthAdjust="spacing" textLength="196.6406" x="722.2363" y="423.6494">Nivel de Satisfacci&#243;n del Usuario</text><rect fill="#F1F1F1" height="33.9688" rx="12.5" ry="12.5" style="stroke:#181818;stroke-width:0.5;" width="270.8574" x="685.1279" y="456.4795"/><text fill="#000000" font-family="sans-serif" font-size="12" lengthAdjust="spacing" textLength="250.8574" x="695.1279" y="477.6182">Meta: Puntuaci&#243;n de satisfacci&#243;n del 90%</text><rect fill="#F1F1F1" height="33.9688" rx="12.5" ry="12.5" style="stroke:#181818;stroke-width:0.5;" width="329.6387" x="655.7373" y="510.4482"/><text fill="#000000" font-family="sans-serif" font-size="12" lengthAdjust="spacing" textLength="309.6387" x="665.7373" y="531.5869">Porcentaje de Incidencias Resueltas Dentro del SLA</text><rect fill="#F1F1F1" height="33.9688" rx="12.5" ry="12.5" style="stroke:#181818;stroke-width:0.5;" width="265.8418" x="687.6357" y="564.417"/><text fill="#000000" font-family="sans-serif" font-size="12" lengthAdjust="spacing" textLength="245.8418" x="697.6357" y="585.5557">Meta: 95% de incidencias dentro del SLA</text><rect fill="#F1F1F1" height="33.9688" rx="12.5" ry="12.5" style="stroke:#181818;stroke-width:0.5;" width="228.5469" x="706.2832" y="618.3857"/><text fill="#000000" font-family="sans-serif" font-size="12" lengthAdjust="spacing" textLength="208.5469" x="716.2832" y="639.5244">Tiempo Promedio de Escalamiento</text><rect fill="#F1F1F1" height="33.9688" rx="12.5" ry="12.5" style="stroke:#181818;stroke-width:0.5;" width="220.0273" x="710.543" y="672.3545"/><text fill="#000000" font-family="sans-serif" font-size="12" lengthAdjust="spacing" textLength="200.0273" x="720.543" y="693.4932">Meta: Reducir a menos de 1 hora</text><line style="stroke:#000000;stroke-width:1.5;" x1="598.6709" x2="598.6709" y1="12.7451" y2="1449.917"/><rect fill="#F1F1F1" height="33.9688" rx="12.5" ry="12.5" style="stroke:#181818;stroke-width:0.5;" width="293.4219" x="1071.2412" y="726.3232"/><text fill="#000000" font-family="sans-serif" font-size="12" lengthAdjust="spacing" textLength="273.4219" x="1081.2412" y="747.4619">Revisar Procedimientos Actuales del &#193;rea TIC</text><rect fill="#F1F1F1" height="33.9688" rx="12.5" ry="12.5" style="stroke:#181818;stroke-width:0.5;" width="317.9785" x="1058.9629" y="780.292"/><text fill="#000000" font-family="sans-serif" font-size="12" lengthAdjust="spacing" textLength="297.9785" x="1068.9629" y="801.4307">Desarrollar Estrategias para Optimizar Respuesta</text><rect fill="#F1F1F1" height="33.9688" rx="12.5" ry="12.5" style="stroke:#181818;stroke-width:0.5;" width="250.5371" x="1092.6836" y="834.2607"/><text fill="#000000" font-family="sans-serif" font-size="12" lengthAdjust="spacing" textLength="230.5371" x="1102.6836" y="855.3994">Asignar Responsabilidades y Recursos</text><line style="stroke:#000000;stroke-width:1.5;" x1="1040.4424" x2="1040.4424" y1="12.7451" y2="1449.917"/><rect fill="#F1F1F1" height="33.9688" rx="12.5" ry="12.5" style="stroke:#181818;stroke-width:0.5;" width="311.2285" x="1423.9102" y="888.2295"/><text fill="#000000" font-family="sans-serif" font-size="12" lengthAdjust="spacing" textLength="291.2285" x="1433.9102" y="909.3682">Capacitar al Personal en Nuevos Procedimientos</text><rect fill="#F1F1F1" height="33.9688" rx="12.5" ry="12.5" style="stroke:#181818;stroke-width:0.5;" width="360.125" x="1399.4619" y="942.1982"/><text fill="#000000" font-family="sans-serif" font-size="12" lengthAdjust="spacing" textLength="340.125" x="1409.4619" y="963.3369">Implementar Herramientas Tecnol&#243;gicas para Monitoreo</text><line style="stroke:#000000;stroke-width:1.5;" x1="1393.4619" x2="1393.4619" y1="12.7451" y2="1449.917"/><rect fill="#F1F1F1" height="33.9688" rx="12.5" ry="12.5" style="stroke:#181818;stroke-width:0.5;" width="248.3398" x="1828.1426" y="996.167"/><text fill="#000000" font-family="sans-serif" font-size="12" lengthAdjust="spacing" textLength="228.3398" x="1838.1426" y="1017.3057">Medir Tiempo de Respuesta Promedio</text><rect fill="#F1F1F1" height="33.9688" rx="12.5" ry="12.5" style="stroke:#181818;stroke-width:0.5;" width="293.457" x="1805.584" y="1050.1357"/><text fill="#000000" font-family="sans-serif" font-size="12" lengthAdjust="spacing" textLength="273.457" x="1815.584" y="1071.2744">Medir Tasa de Resoluci&#243;n en Primer Contacto</text><rect fill="#F1F1F1" height="33.9688" rx="12.5" ry="12.5" style="stroke:#181818;stroke-width:0.5;" width="228.4238" x="1838.1006" y="1104.1045"/><text fill="#000000" font-family="sans-serif" font-size="12" lengthAdjust="spacing" textLength="208.4238" x="1848.1006" y="1125.2432">Realizar Encuestas de Satisfacci&#243;n</text><rect fill="#F1F1F1" height="33.9688" rx="12.5" ry="12.5" style="stroke:#181818;stroke-width:0.5;" width="365.4512" x="1769.5869" y="1158.0732"/><text fill="#000000" font-family="sans-serif" font-size="12" lengthAdjust="spacing" textLength="345.4512" x="1779.5869" y="1179.2119">Medir Porcentaje de Incidencias Resueltas dentro del SLA</text><rect fill="#F1F1F1" height="33.9688" rx="12.5" ry="12.5" style="stroke:#181818;stroke-width:0.5;" width="297.6465" x="1803.4893" y="1212.042"/><text fill="#000000" font-family="sans-serif" font-size="12" lengthAdjust="spacing" textLength="277.6465" x="1813.4893" y="1233.1807">Monitorear Tiempo Promedio de Escalamiento</text><line style="stroke:#000000;stroke-width:1.5;" x1="1763.5869" x2="1763.5869" y1="12.7451" y2="1449.917"/><rect fill="#F1F1F1" height="33.9688" rx="12.5" ry="12.5" style="stroke:#181818;stroke-width:0.5;" width="214.8184" x="2145.0381" y="1266.0107"/><text fill="#000000" font-family="sans-serif" font-size="12" lengthAdjust="spacing" textLength="194.8184" x="2155.0381" y="1287.1494">Comparar Resultados con Metas</text><rect fill="#F1F1F1" height="33.9688" rx="12.5" ry="12.5" style="stroke:#181818;stroke-width:0.5;" width="181.9004" x="2161.4971" y="1319.9795"/><text fill="#000000" font-family="sans-serif" font-size="12" lengthAdjust="spacing" textLength="161.9004" x="2171.4971" y="1341.1182">Identificar &#193;reas de Mejora</text><rect fill="#F1F1F1" height="33.9688" rx="12.5" ry="12.5" style="stroke:#181818;stroke-width:0.5;" width="185.5039" x="2159.6953" y="1373.9482"/><text fill="#000000" font-family="sans-serif" font-size="12" lengthAdjust="spacing" textLength="165.5039" x="2169.6953" y="1395.0869">Realizar Ajustes Necesarios</text><ellipse cx="2252.4473" cy="1438.917" fill="none" rx="11" ry="11" style="stroke:#222222;stroke-width:1.0;"/><ellipse cx="2252.4473" cy="1438.917" fill="#222222" rx="6" ry="6" style="stroke:#222222;stroke-width:1.0;"/><line style="stroke:#000000;stroke-width:1.5;" x1="2139.0381" x2="2139.0381" y1="12.7451" y2="1449.917"/><line style="stroke:#000000;stroke-width:1.5;" x1="2363.8564" x2="2363.8564" y1="12.7451" y2="1449.917"/><line style="stroke:#181818;stroke-width:1.0;" x1="307.8354" x2="307.8354" y1="58.6982" y2="78.6982"/><polygon fill="#181818" points="303.8354,68.6982,307.8354,78.6982,311.8354,68.6982,307.8354,72.6982" style="stroke:#181818;stroke-width:1.0;"/><line style="stroke:#181818;stroke-width:1.0;" x1="307.8354" x2="307.8354" y1="112.667" y2="132.667"/><polygon fill="#181818" points="303.8354,122.667,307.8354,132.667,311.8354,122.667,307.8354,126.667" style="stroke:#181818;stroke-width:1.0;"/><line style="stroke:#181818;stroke-width:1.0;" x1="820.5566" x2="820.5566" y1="220.6045" y2="240.6045"/><polygon fill="#181818" points="816.5566,230.6045,820.5566,240.6045,824.5566,230.6045,820.5566,234.6045" style="stroke:#181818;stroke-width:1.0;"/><line style="stroke:#181818;stroke-width:1.0;" x1="820.5566" x2="820.5566" y1="274.5732" y2="294.5732"/><polygon fill="#181818" points="816.5566,284.5732,820.5566,294.5732,824.5566,284.5732,820.5566,288.5732" style="stroke:#181818;stroke-width:1.0;"/><line style="stroke:#181818;stroke-width:1.0;" x1="820.5566" x2="820.5566" y1="328.542" y2="348.542"/><polygon fill="#181818" points="816.5566,338.542,820.5566,348.542,824.5566,338.542,820.5566,342.542" style="stroke:#181818;stroke-width:1.0;"/><line style="stroke:#181818;stroke-width:1.0;" x1="820.5566" x2="820.5566" y1="382.5107" y2="402.5107"/><polygon fill="#181818" points="816.5566,392.5107,820.5566,402.5107,824.5566,392.5107,820.5566,396.5107" style="stroke:#181818;stroke-width:1.0;"/><line style="stroke:#181818;stroke-width:1.0;" x1="820.5566" x2="820.5566" y1="436.4795" y2="456.4795"/><polygon fill="#181818" points="816.5566,446.4795,820.5566,456.4795,824.5566,446.4795,820.5566,450.4795" style="stroke:#181818;stroke-width:1.0;"/><line style="stroke:#181818;stroke-width:1.0;" x1="820.5566" x2="820.5566" y1="490.4482" y2="510.4482"/><polygon fill="#181818" points="816.5566,500.4482,820.5566,510.4482,824.5566,500.4482,820.5566,504.4482" style="stroke:#181818;stroke-width:1.0;"/><line style="stroke:#181818;stroke-width:1.0;" x1="820.5566" x2="820.5566" y1="544.417" y2="564.417"/><polygon fill="#181818" points="816.5566,554.417,820.5566,564.417,824.5566,554.417,820.5566,558.417" style="stroke:#181818;stroke-width:1.0;"/><line style="stroke:#181818;stroke-width:1.0;" x1="820.5566" x2="820.5566" y1="598.3857" y2="618.3857"/><polygon fill="#181818" points="816.5566,608.3857,820.5566,618.3857,824.5566,608.3857,820.5566,612.3857" style="stroke:#181818;stroke-width:1.0;"/><line style="stroke:#181818;stroke-width:1.0;" x1="820.5566" x2="820.5566" y1="652.3545" y2="672.3545"/><polygon fill="#181818" points="816.5566,662.3545,820.5566,672.3545,824.5566,662.3545,820.5566,666.3545" style="stroke:#181818;stroke-width:1.0;"/><line style="stroke:#181818;stroke-width:1.0;" x1="1217.9521" x2="1217.9521" y1="760.292" y2="780.292"/><polygon fill="#181818" points="1213.9521,770.292,1217.9521,780.292,1221.9521,770.292,1217.9521,774.292" style="stroke:#181818;stroke-width:1.0;"/><line style="stroke:#181818;stroke-width:1.0;" x1="1217.9521" x2="1217.9521" y1="814.2607" y2="834.2607"/><polygon fill="#181818" points="1213.9521,824.2607,1217.9521,834.2607,1221.9521,824.2607,1217.9521,828.2607" style="stroke:#181818;stroke-width:1.0;"/><line style="stroke:#181818;stroke-width:1.0;" x1="1579.5244" x2="1579.5244" y1="922.1982" y2="942.1982"/><polygon fill="#181818" points="1575.5244,932.1982,1579.5244,942.1982,1583.5244,932.1982,1579.5244,936.1982" style="stroke:#181818;stroke-width:1.0;"/><line style="stroke:#181818;stroke-width:1.0;" x1="1952.3125" x2="1952.3125" y1="1030.1357" y2="1050.1357"/><polygon fill="#181818" points="1948.3125,1040.1357,1952.3125,1050.1357,1956.3125,1040.1357,1952.3125,1044.1357" style="stroke:#181818;stroke-width:1.0;"/><line style="stroke:#181818;stroke-width:1.0;" x1="1952.3125" x2="1952.3125" y1="1084.1045" y2="1104.1045"/><polygon fill="#181818" points="1948.3125,1094.1045,1952.3125,1104.1045,1956.3125,1094.1045,1952.3125,1098.1045" style="stroke:#181818;stroke-width:1.0;"/><line style="stroke:#181818;stroke-width:1.0;" x1="1952.3125" x2="1952.3125" y1="1138.0732" y2="1158.0732"/><polygon fill="#181818" points="1948.3125,1148.0732,1952.3125,1158.0732,1956.3125,1148.0732,1952.3125,1152.0732" style="stroke:#181818;stroke-width:1.0;"/><line style="stroke:#181818;stroke-width:1.0;" x1="1952.3125" x2="1952.3125" y1="1192.042" y2="1212.042"/><polygon fill="#181818" points="1948.3125,1202.042,1952.3125,1212.042,1956.3125,1202.042,1952.3125,1206.042" style="stroke:#181818;stroke-width:1.0;"/><line style="stroke:#181818;stroke-width:1.0;" x1="2252.4473" x2="2252.4473" y1="1299.9795" y2="1319.9795"/><polygon fill="#181818" points="2248.4473,1309.9795,2252.4473,1319.9795,2256.4473,1309.9795,2252.4473,1313.9795" style="stroke:#181818;stroke-width:1.0;"/><line style="stroke:#181818;stroke-width:1.0;" x1="2252.4473" x2="2252.4473" y1="1353.9482" y2="1373.9482"/><polygon fill="#181818" points="2248.4473,1363.9482,2252.4473,1373.9482,2256.4473,1363.9482,2252.4473,1367.9482" style="stroke:#181818;stroke-width:1.0;"/><line style="stroke:#181818;stroke-width:1.0;" x1="2252.4473" x2="2252.4473" y1="1407.917" y2="1427.917"/><polygon fill="#181818" points="2248.4473,1417.917,2252.4473,1427.917,2256.4473,1417.917,2252.4473,1421.917" style="stroke:#181818;stroke-width:1.0;"/><line style="stroke:#181818;stroke-width:1.0;" x1="307.8354" x2="307.8354" y1="166.6357" y2="171.6357"/><line style="stroke:#181818;stroke-width:1.0;" x1="307.8354" x2="820.5566" y1="171.6357" y2="171.6357"/><line style="stroke:#181818;stroke-width:1.0;" x1="820.5566" x2="820.5566" y1="171.6357" y2="186.6357"/><polygon fill="#181818" points="816.5566,176.6357,820.5566,186.6357,824.5566,176.6357,820.5566,180.6357" style="stroke:#181818;stroke-width:1.0;"/><line style="stroke:#181818;stroke-width:1.0;" x1="820.5566" x2="820.5566" y1="706.3232" y2="711.3232"/><line style="stroke:#181818;stroke-width:1.0;" x1="820.5566" x2="1217.9521" y1="711.3232" y2="711.3232"/><line style="stroke:#181818;stroke-width:1.0;" x1="1217.9521" x2="1217.9521" y1="711.3232" y2="726.3232"/><polygon fill="#181818" points="1213.9521,716.3232,1217.9521,726.3232,1221.9521,716.3232,1217.9521,720.3232" style="stroke:#181818;stroke-width:1.0;"/><line style="stroke:#181818;stroke-width:1.0;" x1="1217.9521" x2="1217.9521" y1="868.2295" y2="873.2295"/><line style="stroke:#181818;stroke-width:1.0;" x1="1217.9521" x2="1579.5244" y1="873.2295" y2="873.2295"/><line style="stroke:#181818;stroke-width:1.0;" x1="1579.5244" x2="1579.5244" y1="873.2295" y2="888.2295"/><polygon fill="#181818" points="1575.5244,878.2295,1579.5244,888.2295,1583.5244,878.2295,1579.5244,882.2295" style="stroke:#181818;stroke-width:1.0;"/><line style="stroke:#181818;stroke-width:1.0;" x1="1579.5244" x2="1579.5244" y1="976.167" y2="981.167"/><line style="stroke:#181818;stroke-width:1.0;" x1="1579.5244" x2="1952.3125" y1="981.167" y2="981.167"/><line style="stroke:#181818;stroke-width:1.0;" x1="1952.3125" x2="1952.3125" y1="981.167" y2="996.167"/><polygon fill="#181818" points="1948.3125,986.167,1952.3125,996.167,1956.3125,986.167,1952.3125,990.167" style="stroke:#181818;stroke-width:1.0;"/><line style="stroke:#181818;stroke-width:1.0;" x1="1952.3125" x2="1952.3125" y1="1246.0107" y2="1251.0107"/><line style="stroke:#181818;stroke-width:1.0;" x1="1952.3125" x2="2252.4473" y1="1251.0107" y2="1251.0107"/><line style="stroke:#181818;stroke-width:1.0;" x1="2252.4473" x2="2252.4473" y1="1251.0107" y2="1266.0107"/><polygon fill="#181818" points="2248.4473,1256.0107,2252.4473,1266.0107,2256.4473,1256.0107,2252.4473,1260.0107" style="stroke:#181818;stroke-width:1.0;"/><text fill="#000000" font-family="sans-serif" font-size="18" lengthAdjust="spacing" textLength="573.6709" x="20" y="29.4531">Proyecto: Evaluaci&#243;n de los Tiempos de Respuesta del &#193;rea TIC</text><text fill="#000000" font-family="sans-serif" font-size="18" lengthAdjust="spacing" textLength="431.7715" x="603.6709" y="29.4531">Definir Indicadores Clave de Rendimiento (KPIs)</text><text fill="#000000" font-family="sans-serif" font-size="18" lengthAdjust="spacing" textLength="343.0195" x="1045.4424" y="29.4531">Planificaci&#243;n de Estrategias de Mejora</text><text fill="#000000" font-family="sans-serif" font-size="18" lengthAdjust="spacing" textLength="250.1367" x="1453.4561" y="29.4531">Implementaci&#243;n de Mejoras</text><text fill="#000000" font-family="sans-serif" font-size="18" lengthAdjust="spacing" textLength="161.7979" x="1870.4136" y="29.4531">Monitoreo de KPIs</text><text fill="#000000" font-family="sans-serif" font-size="18" lengthAdjust="spacing" textLength="209.25" x="2146.8223" y="29.4531">Revisi&#243;n de Resultados</text><!--SRC=[ZLH1Rjim4Bph5Rm4Q6zfYnQDSp8S0pLQEuBZFc1DhLqQ52bmAGCfTEcRyWH_h4F9bkKQAN8IkToTdPqTgCc3VsOT_KXDzsHhqkRmubJ1odfHAyDbXI-kIvQgPec4YrM7Fu59hMQJ9aCen2mRpGfsqMoCfg00khPSaYXshmBTPwC7tXXdWdfSxpYQVPSmvvqFUCsQq_FC5O0jV61H4qjxxd0GBGsQUlNkUpwJzqqswlfSyWMPaWlZ5G586z3KXWJTvnnfXCIYrcW2fhLJ7szlqkcBAbau9Qr8w8ZdRTsfWuGyc9A3cdWN2UhrQ6EhoVs615y_jq2VUg25sKCu83rHDB8XVLBQgfzIKp1daBnsSR09kIgukxr1Skw3nlYqQ_KOp9R8rcmZJWz82BujUlenxZlSWHrgpA2c-3Vpg6Kl7_AdeibI9_gLW8HHNRV23-hNSOMv9TUQefzcAZ5Gv6tNyxXjh6x9UoETTpIVDYjgh265PRcqNUiTP0TlBMg6c1K5KezL14BQmz1kOp5RTunv9xGsrXHK0FmPCLq7yP98pyeAxatIzgmxcWAU4weGXkaLMPKpQXmEMFMYvkJWI_xeUaOBwXk7qEa7fYlMpjl3onRo77dFlJCHFlU9Hdz919B3coHv0Qd_P_FxFkcjpbqosLQhgTCjbbpPj0TzY-Ukd7GQX7hchvigQreZd7HFg00jV2kzBvDAOH1LsZkLVDWgFVW5jLQv-9-SvnplQedO-e9rCf5fjoxHLty1]--></g></svg>